<?xml version="1.0" encoding="UTF-8"?>
<svg version="1.1" xmlns="http://www.w3.org/2000/svg" width="1024" height="1024">
<path d="M0 0 C337.92 0 675.84 0 1024 0 C1024 337.92 1024 675.84 1024 1024 C686.08 1024 348.16 1024 0 1024 C0 686.08 0 348.16 0 0 Z " fill="#F8F4EE" transform="translate(0,0)"/>
<path d="M0 0 C3.50170896 0.00456588 7.0033987 -0.00247946 10.50510371 -0.00795984 C17.34626248 -0.01681093 24.18737715 -0.0149513 31.02853759 -0.00913456 C36.59113719 -0.00460222 42.15372449 -0.00401194 47.7163254 -0.00618219 C48.51055663 -0.00648866 49.30478786 -0.00679513 50.12308669 -0.00711088 C51.73693818 -0.00775038 53.35078966 -0.00839881 54.96464113 -0.00905606 C70.06443204 -0.01474651 85.16419858 -0.00822111 100.26398549 0.00254467 C113.20276376 0.0114842 126.14150614 0.00992233 139.08028376 0.00070715 C154.13381849 -0.01000929 169.18733193 -0.01420275 184.24086994 -0.00806832 C185.84758711 -0.00743127 187.45430427 -0.00680253 189.06102145 -0.00618219 C189.85140754 -0.00587364 190.64179364 -0.00556509 191.45613083 -0.00524719 C197.00956146 -0.00352476 202.56297851 -0.00642548 208.11640704 -0.0111413 C214.88746165 -0.01676519 221.65846992 -0.01520185 228.42951926 -0.00457981 C231.88003424 0.00065586 235.33047211 0.00276971 238.78098643 -0.00387812 C242.52932203 -0.00936107 246.27744215 -0.00246594 250.02576411 0.00748205 C251.10476628 0.00302061 252.18376846 -0.00144083 253.29546767 -0.00603747 C271.50945024 0.0874168 287.52497385 6.03092822 301.00044978 18.57394934 C318.87881391 37.80080323 319.6377343 61.44604766 319.56026423 86.13229895 C319.56103713 88.84891353 319.56630195 91.5655154 319.57132685 94.282125 C319.58076589 100.86797446 319.57425801 107.45371356 319.56206391 114.03955477 C319.54836912 121.72539742 319.55008837 129.41121448 319.55219724 137.09706623 C319.55538005 150.82074703 319.54376074 164.54437577 319.52413142 178.26804113 C319.50513409 191.55353903 319.49804381 204.83897593 319.5036236 218.12448645 C319.50969609 232.62578231 319.50947719 247.12705142 319.49813777 261.62834507 C319.49693061 263.17784075 319.49572463 264.72733643 319.49451983 266.2768321 C319.49361452 267.42010532 319.49361452 267.42010532 319.49269092 268.58647497 C319.48882871 273.93063495 319.4891988 279.2747849 319.49110568 284.6189456 C319.49323877 291.1417582 319.48791996 297.66451769 319.47349212 304.1873154 C319.46630147 307.50872471 319.46321146 310.82999329 319.46673548 314.15141821 C319.49007504 340.09562961 318.25926685 362.00269226 299.59810603 382.06613684 C285.1668396 395.21098567 268.42059103 399.42216089 249.29714167 399.39516211 C248.11454288 399.39742766 246.93194408 399.39969322 245.71350896 399.40202743 C242.44828409 399.40724545 239.18309404 399.40801526 235.91786635 399.40683305 C232.38945147 399.40662831 228.86104469 399.4121548 225.33263361 399.41689062 C218.42616041 399.42518193 211.51969574 399.42794478 204.61321798 399.428503 C198.99661479 399.42897889 193.38001442 399.43103729 187.76341212 399.43420362 C171.8235806 399.44300614 155.8837558 399.44762364 139.94392183 399.44687315 C139.08536902 399.44683319 138.22681621 399.44679324 137.34224665 399.44675207 C136.48264011 399.44671119 135.62303356 399.44667031 134.73737833 399.44662819 C120.81061757 399.44622186 106.88388387 399.45578921 92.95713094 399.46989044 C78.64182071 399.4842702 64.32652366 399.49115974 50.01120603 399.49029666 C41.98046106 399.48996524 33.94974444 399.49268826 25.91900599 399.50347471 C19.08086517 399.51260079 12.24276556 399.51473771 5.40462127 399.50796529 C1.91959163 399.50471067 -1.56535903 399.5046049 -5.05038106 399.51331854 C-8.83809319 399.52105883 -12.62559971 399.51637996 -16.41330755 399.5086875 C-17.5012715 399.51383106 -18.58923545 399.51897462 -19.710168 399.52427405 C-39.18524219 399.43724841 -54.11055718 393.9793901 -68.39017522 380.74191809 C-75.39638952 373.56619861 -80.13565808 365.54209779 -83.81205022 356.26144934 C-84.22455022 355.23019934 -84.63705022 354.19894934 -85.06205022 353.13644934 C-87.087646 345.37166554 -86.9588937 337.36955545 -86.95249212 329.40224218 C-86.95546324 328.23512317 -86.95843436 327.06800417 -86.96149552 325.86551791 C-86.96863478 322.64816069 -86.97135161 319.43083616 -86.97209299 316.21347225 C-86.97395428 312.7348348 -86.98150676 309.25620869 -86.9882282 305.77757788 C-87.00176642 298.18250759 -87.0078287 290.58744261 -87.01223886 282.99236226 C-87.01500798 278.2451612 -87.01924644 273.49796216 -87.02374303 268.75076246 C-87.03592799 255.59207776 -87.04623 242.43339467 -87.04961812 229.27470446 C-87.04983769 228.43380247 -87.05005726 227.59290049 -87.05028348 226.72651662 C-87.05061089 225.46226155 -87.05061089 225.46226155 -87.05094492 224.17246598 C-87.05138838 222.46474103 -87.05183494 220.75701608 -87.0522846 219.04929113 C-87.05250603 218.20221255 -87.05272746 217.35513396 -87.0529556 216.48238633 C-87.05690384 202.75613857 -87.07436211 189.02994388 -87.09764412 175.30371662 C-87.12138617 161.19177678 -87.13382121 147.07986356 -87.13498604 132.96790344 C-87.135901 125.05229169 -87.14160847 117.1367492 -87.15980566 109.2211566 C-87.17524496 102.48184122 -87.18030445 95.74261652 -87.17206755 89.0032868 C-87.16817505 85.56884235 -87.16902171 82.13458031 -87.1831249 78.7001586 C-87.19586389 74.96715268 -87.18995645 71.23461053 -87.1795429 67.50160742 C-87.1875993 66.42988938 -87.19565571 65.35817134 -87.20395625 64.253977 C-87.08804595 46.40805789 -80.03829604 31.4357231 -68.05423772 18.45676184 C-48.82357572 -0.37186542 -25.22432421 -0.04873852 0 0 Z " fill="#F8F4EE" transform="translate(395.8120502233505,189.73855066299438)"/>
<path d="M0 0 C3.50170896 0.00456588 7.0033987 -0.00247946 10.50510371 -0.00795984 C17.34626248 -0.01681093 24.18737715 -0.0149513 31.02853759 -0.00913456 C36.59113719 -0.00460222 42.15372449 -0.00401194 47.7163254 -0.00618219 C48.51055663 -0.00648866 49.30478786 -0.00679513 50.12308669 -0.00711088 C51.73693818 -0.00775038 53.35078966 -0.00839881 54.96464113 -0.00905606 C70.06443204 -0.01474651 85.16419858 -0.00822111 100.26398549 0.00254467 C113.20276376 0.0114842 126.14150614 0.00992233 139.08028376 0.00070715 C154.13381849 -0.01000929 169.18733193 -0.01420275 184.24086994 -0.00806832 C185.84758711 -0.00743127 187.45430427 -0.00680253 189.06102145 -0.00618219 C189.85140754 -0.00587364 190.64179364 -0.00556509 191.45613083 -0.00524719 C197.00956146 -0.00352476 202.56297851 -0.00642548 208.11640704 -0.0111413 C214.88746165 -0.01676519 221.65846992 -0.01520185 228.42951926 -0.00457981 C231.88003424 0.00065586 235.33047211 0.00276971 238.78098643 -0.00387812 C242.52932203 -0.00936107 246.27744215 -0.00246594 250.02576411 0.00748205 C251.10476628 0.00302061 252.18376846 -0.00144083 253.29546767 -0.00603747 C271.50945024 0.0874168 287.52497385 6.03092822 301.00044978 18.57394934 C318.87881391 37.80080323 319.6377343 61.44604766 319.56026423 86.13229895 C319.56103713 88.84891353 319.56630195 91.5655154 319.57132685 94.282125 C319.58076589 100.86797446 319.57425801 107.45371356 319.56206391 114.03955477 C319.54836912 121.72539742 319.55008837 129.41121448 319.55219724 137.09706623 C319.55538005 150.82074703 319.54376074 164.54437577 319.52413142 178.26804113 C319.50513409 191.55353903 319.49804381 204.83897593 319.5036236 218.12448645 C319.50969609 232.62578231 319.50947719 247.12705142 319.49813777 261.62834507 C319.49693061 263.17784075 319.49572463 264.72733643 319.49451983 266.2768321 C319.49361452 267.42010532 319.49361452 267.42010532 319.49269092 268.58647497 C319.48882871 273.93063495 319.4891988 279.2747849 319.49110568 284.6189456 C319.49323877 291.1417582 319.48791996 297.66451769 319.47349212 304.1873154 C319.46630147 307.50872471 319.46321146 310.82999329 319.46673548 314.15141821 C319.49007504 340.09562961 318.25926685 362.00269226 299.59810603 382.06613684 C285.1668396 395.21098567 268.42059103 399.42216089 249.29714167 399.39516211 C248.11454288 399.39742766 246.93194408 399.39969322 245.71350896 399.40202743 C242.44828409 399.40724545 239.18309404 399.40801526 235.91786635 399.40683305 C232.38945147 399.40662831 228.86104469 399.4121548 225.33263361 399.41689062 C218.42616041 399.42518193 211.51969574 399.42794478 204.61321798 399.428503 C198.99661479 399.42897889 193.38001442 399.43103729 187.76341212 399.43420362 C171.8235806 399.44300614 155.8837558 399.44762364 139.94392183 399.44687315 C139.08536902 399.44683319 138.22681621 399.44679324 137.34224665 399.44675207 C136.48264011 399.44671119 135.62303356 399.44667031 134.73737833 399.44662819 C120.81061757 399.44622186 106.88388387 399.45578921 92.95713094 399.46989044 C78.64182071 399.4842702 64.32652366 399.49115974 50.01120603 399.49029666 C41.98046106 399.48996524 33.94974444 399.49268826 25.91900599 399.50347471 C19.08086517 399.51260079 12.24276556 399.51473771 5.40462127 399.50796529 C1.91959163 399.50471067 -1.56535903 399.5046049 -5.05038106 399.51331854 C-8.83809319 399.52105883 -12.62559971 399.51637996 -16.41330755 399.5086875 C-17.5012715 399.51383106 -18.58923545 399.51897462 -19.710168 399.52427405 C-39.18524219 399.43724841 -54.11055718 393.9793901 -68.39017522 380.74191809 C-75.39638952 373.56619861 -80.13565808 365.54209779 -83.81205022 356.26144934 C-84.22455022 355.23019934 -84.63705022 354.19894934 -85.06205022 353.13644934 C-87.087646 345.37166554 -86.9588937 337.36955545 -86.95249212 329.40224218 C-86.95546324 328.23512317 -86.95843436 327.06800417 -86.96149552 325.86551791 C-86.96863478 322.64816069 -86.97135161 319.43083616 -86.97209299 316.21347225 C-86.97395428 312.7348348 -86.98150676 309.25620869 -86.9882282 305.77757788 C-87.00176642 298.18250759 -87.0078287 290.58744261 -87.01223886 282.99236226 C-87.01500798 278.2451612 -87.01924644 273.49796216 -87.02374303 268.75076246 C-87.03592799 255.59207776 -87.04623 242.43339467 -87.04961812 229.27470446 C-87.04983769 228.43380247 -87.05005726 227.59290049 -87.05028348 226.72651662 C-87.05061089 225.46226155 -87.05061089 225.46226155 -87.05094492 224.17246598 C-87.05138838 222.46474103 -87.05183494 220.75701608 -87.0522846 219.04929113 C-87.05250603 218.20221255 -87.05272746 217.35513396 -87.0529556 216.48238633 C-87.05690384 202.75613857 -87.07436211 189.02994388 -87.09764412 175.30371662 C-87.12138617 161.19177678 -87.13382121 147.07986356 -87.13498604 132.96790344 C-87.135901 125.05229169 -87.14160847 117.1367492 -87.15980566 109.2211566 C-87.17524496 102.48184122 -87.18030445 95.74261652 -87.17206755 89.0032868 C-87.16817505 85.56884235 -87.16902171 82.13458031 -87.1831249 78.7001586 C-87.19586389 74.96715268 -87.18995645 71.23461053 -87.1795429 67.50160742 C-87.1875993 66.42988938 -87.19565571 65.35817134 -87.20395625 64.253977 C-87.08804595 46.40805789 -80.03829604 31.4357231 -68.05423772 18.45676184 C-48.82357572 -0.37186542 -25.22432421 -0.04873852 0 0 Z M-57.65580022 35.48019934 C-62.04589916 41.35846741 -64.65169729 47.28095412 -66.81205022 54.26144934 C-67.14205022 55.25144934 -67.47205022 56.24144934 -67.81205022 57.26144934 C-67.90588762 58.84869542 -67.94294336 60.43959902 -67.9462713 62.02961302 C-67.95072914 63.01685342 -67.95518699 64.00409383 -67.95977992 65.02125061 C-67.95959556 66.10867384 -67.95941119 67.19609708 -67.95922124 68.31647253 C-67.96289793 69.46959232 -67.96657462 70.62271211 -67.97036272 71.81077492 C-67.97949083 75.01695228 -67.98409957 78.22309955 -67.98675203 81.42928767 C-67.99065527 84.88555669 -68.00023388 88.34181088 -68.0089649 91.79807043 C-68.02873314 100.14993835 -68.03879789 108.50180748 -68.04769269 116.85369295 C-68.05207671 120.78898617 -68.05744338 124.72427805 -68.06268156 128.65957022 C-68.07969741 141.74680759 -68.09418932 154.83404413 -68.1014303 167.92129087 C-68.10334014 171.31804293 -68.10526047 174.71479497 -68.10721624 178.11154699 C-68.10769998 178.95577505 -68.10818372 179.8000031 -68.10868212 180.66981383 C-68.11697386 194.33111972 -68.14229467 207.9923378 -68.17479692 221.65360539 C-68.20791232 235.6873889 -68.22588327 249.72112787 -68.22907454 263.75495064 C-68.23123595 271.63102654 -68.23992991 279.50697456 -68.26553571 287.38301229 C-68.28730438 294.09428132 -68.29526314 300.80539141 -68.28556893 307.51669173 C-68.28104139 310.93709743 -68.28281896 314.35717568 -68.30233037 317.77753592 C-68.32009063 321.49749353 -68.3129215 325.21663058 -68.29979742 328.93658972 C-68.31076666 330.00170574 -68.32173591 331.06682175 -68.33303756 332.16421402 C-68.22080385 345.41789554 -63.86154736 357.35931324 -55.00345647 367.28879309 C-43.88563483 377.85187935 -30.65225742 380.57101305 -15.88364446 380.52887487 C-14.70906391 380.53340599 -13.53448337 380.5379371 -12.32430947 380.54260552 C-9.08604525 380.55302937 -5.84792173 380.55458334 -2.6096462 380.55221677 C0.89151544 380.55180683 4.39264456 380.56286452 7.89379084 380.57233191 C14.74498691 380.58890459 21.59614855 380.59443975 28.44736299 380.59555666 C34.019601 380.59650889 39.59182771 380.6006279 45.16406214 380.60695791 C60.98224911 380.62456 76.80040899 380.63379838 92.61860582 380.63229696 C93.47035651 380.63221705 94.32210721 380.63213714 95.19966853 380.63205481 C96.05246603 380.63197304 96.90526354 380.63189128 97.78390339 380.63180704 C111.6000293 380.6309944 125.41604614 380.65012942 139.23214051 380.67833154 C153.43788186 380.70709891 167.64357007 380.72086972 181.84934127 380.71914399 C189.81698129 380.71848142 197.78450693 380.72391492 205.75212061 380.74550009 C212.53644799 380.76376267 219.32060913 380.76801774 226.10495052 380.75448124 C229.56184483 380.74797709 233.01842073 380.74774087 236.47528422 380.76518774 C240.23434044 380.78068998 243.99257022 380.77129782 247.75160944 380.75592566 C249.36649008 380.77135634 249.36649008 380.77135634 251.01399457 380.78709877 C263.60700814 380.67393844 276.43994713 376.82513985 285.81294978 368.13644934 C301.01031867 351.7754768 300.77536128 334.2763177 300.7055279 313.19699621 C300.70875518 310.44772047 300.71793532 307.69847141 300.72676814 304.94920874 C300.74447853 298.28032116 300.74074698 291.61161448 300.72911757 284.94272006 C300.72005388 279.51883239 300.71887189 274.09499513 300.72321284 268.67110205 C300.72413224 267.50955943 300.72413224 267.50955943 300.72507021 266.32455131 C300.72634922 264.75104875 300.72764607 263.1775462 300.72896057 261.60404366 C300.74034446 246.87757449 300.72728718 232.1512052 300.70575911 217.42475241 C300.68789011 204.81118604 300.69099483 192.19776696 300.70943415 179.58420324 C300.73087972 164.90749281 300.73924602 150.23086973 300.7269851 135.55414581 C300.72571101 133.9866961 300.72445352 132.41924637 300.72321284 130.85179663 C300.72259574 130.08074574 300.72197863 129.30969485 300.72134283 128.51527879 C300.71790097 123.10304638 300.72369306 117.69086976 300.73313105 112.27864599 C300.7443935 105.67555493 300.74122239 99.07265387 300.72000808 92.46958435 C300.70955407 89.10576143 300.7074606 85.74251383 300.71860468 82.378654 C300.77807974 62.59649598 299.97835617 46.63644601 285.81294978 31.38644934 C275.42069086 21.75291729 261.57325078 18.63689487 247.7650677 18.76024389 C246.58565832 18.7547095 245.40624894 18.7491751 244.19109988 18.74347299 C240.95783593 18.73231411 237.72519726 18.73880336 234.49196517 18.75320971 C230.98954177 18.76440672 227.48718292 18.75234843 223.98476374 18.74336767 C217.14007507 18.72949295 210.2955719 18.73694804 203.4508922 18.75204325 C195.46891732 18.76897148 187.48698778 18.76568461 179.50500049 18.76194917 C165.25816632 18.75608136 151.01142075 18.77020073 136.76460993 18.7948966 C122.95988867 18.81882323 109.15528571 18.82589596 95.35054743 18.81540442 C80.29224652 18.80398056 65.23400022 18.80208256 50.17569995 18.81650251 C48.56840551 18.81802825 46.96111107 18.8195486 45.35381663 18.82106352 C44.167795 18.82220024 44.167795 18.82220024 42.95781334 18.82335993 C37.40188653 18.82809071 31.84598421 18.82625996 26.29005778 18.82199812 C19.51529067 18.81705822 12.74063513 18.82311485 5.96589349 18.84289242 C2.5133326 18.8527252 -0.93905885 18.85791325 -4.39162862 18.8499999 C-8.14231088 18.84402399 -11.89249771 18.85659732 -15.64313543 18.87376928 C-16.72281973 18.86775924 -17.80250402 18.86174919 -18.91490602 18.85555702 C-33.68621738 18.97812973 -48.03205509 23.89908231 -57.65580022 35.48019934 Z " fill="#5C41BC" transform="translate(395.8120502233505,189.73855066299438)"/>
<path d="M0 0 C6.42460212 3.65945337 11.82082009 8.77473769 14.2890625 15.9140625 C16.55980115 24.72452844 15.02094589 31.93843116 10.5625 39.8125 C6.91116159 44.402754 2.04102021 47.73002156 -3.4375 49.8125 C-4.93691757 49.88877353 -6.43706277 49.95138165 -7.9375 50.00390625 C-11.2350243 50.3092114 -11.2350243 50.3092114 -13.88964844 52.12548828 C-15.16062726 54.02552117 -16.1821392 55.94685033 -17.1875 58 C-18.02422056 59.55696962 -18.86286039 61.11290891 -19.703125 62.66796875 C-20.35958008 63.91779541 -20.35958008 63.91779541 -21.02929688 65.19287109 C-23.51645999 69.81964992 -26.2425696 74.3047164 -28.9375 78.8125 C-30.05580708 80.70116044 -31.1730078 82.59047645 -32.2890625 84.48046875 C-32.82563477 85.38845215 -33.36220703 86.29643555 -33.91503906 87.23193359 C-35.26712536 89.52371553 -36.61550467 91.81758905 -37.9609375 94.11328125 C-42.90203565 102.54413188 -47.9034343 110.93676998 -52.9375 119.3125 C-58.49410271 128.55936028 -64.03446895 137.81352485 -69.45214844 147.14257812 C-70.35189009 148.66741284 -71.2874644 150.17095838 -72.2265625 151.671875 C-74.97396802 155.85424733 -74.97396802 155.85424733 -74.875 160.625 C-74.400625 161.346875 -73.92625 162.06875 -73.4375 162.8125 C-70.09227706 168.23618867 -70.77980809 174.68938834 -71.4375 180.8125 C-72.63559824 184.47591576 -74.07174766 187.75368219 -76.4375 190.8125 C-77.4275 191.1425 -78.4175 191.4725 -79.4375 191.8125 C-79.74042969 192.44671875 -80.04335938 193.0809375 -80.35546875 193.734375 C-82.13836776 197.15857092 -84.9533695 197.77354876 -88.453125 199.04296875 C-95.49538406 200.85883921 -102.70342195 201.13392764 -109.3125 197.8125 C-116.00598506 193.45681303 -121.09447504 187.49241514 -123.4375 179.8125 C-123.45218632 178.04040822 -123.45938284 176.26824571 -123.4609375 174.49609375 C-123.74296329 171.20151979 -123.9461952 169.39824176 -126.08740234 166.84545898 C-128.37473633 165.10407838 -130.70253399 163.63262733 -133.1875 162.1875 C-134.92088625 161.096852 -136.65395773 160.00570357 -138.38671875 158.9140625 C-139.24313965 158.39231445 -140.09956055 157.87056641 -140.98193359 157.33300781 C-144.41603509 155.20658267 -147.70717968 152.89930929 -151 150.5625 C-154.60840545 148.00002056 -154.60840545 148.00002056 -158.4375 145.8125 C-158.4375 145.1525 -158.4375 144.4925 -158.4375 143.8125 C-159.15808594 143.55597656 -159.87867188 143.29945313 -160.62109375 143.03515625 C-164.51267597 141.34574538 -167.64046423 138.88703653 -171.03515625 136.37109375 C-173.29040514 134.90793227 -174.79175454 134.14182275 -177.4375 133.8125 C-178.7059375 134.245625 -178.7059375 134.245625 -180 134.6875 C-184.08324699 136.02383538 -187.87321228 136.23817948 -192.14453125 136.46875 C-192.90121094 136.5821875 -193.65789062 136.695625 -194.4375 136.8125 C-194.7675 137.4725 -195.0975 138.1325 -195.4375 138.8125 C-196.0975 138.8125 -196.7575 138.8125 -197.4375 138.8125 C-197.80488281 139.89144531 -197.80488281 139.89144531 -198.1796875 140.9921875 C-199.58993251 144.15428966 -201.31215424 146.31078979 -203.5625 148.9375 C-207.37048915 153.48036425 -210.90234645 158.13391802 -214.35546875 162.94921875 C-216.57987184 166.00829467 -218.87205018 169.00981934 -221.1875 172 C-225.11486911 177.08057065 -229.01012222 182.18419485 -232.875 187.3125 C-233.38321289 187.9830542 -233.89142578 188.6536084 -234.41503906 189.34448242 C-238.2438114 194.37492693 -238.2438114 194.37492693 -241.4375 199.8125 C-240.80031399 201.82208663 -240.12586513 203.81986409 -239.4375 205.8125 C-238.60298687 215.17469414 -239.7113279 221.7251427 -245.8125 229.0625 C-250.35267863 234.004126 -254.48840495 236.52286256 -261.20703125 237.015625 C-270.66475341 237.1613152 -276.6621545 235.25056474 -283.63671875 228.75 C-288.95964977 223.02294189 -290.09594701 217.52277883 -289.83203125 209.78125 C-289.23443676 205.28449942 -287.63200537 201.73993582 -285.4375 197.8125 C-285.025 196.905 -284.6125 195.9975 -284.1875 195.0625 C-281.43641105 191.52538564 -278.65178761 189.40808288 -274.4375 187.8125 C-272.4981295 187.63948562 -270.55761152 187.47049157 -268.61328125 187.3671875 C-263.45316048 187.08104402 -259.62515994 186.86711606 -255.578125 183.2734375 C-253.3122859 180.20923227 -251.33825534 177.11359059 -249.4375 173.8125 C-247.83034366 171.42165604 -246.16657823 169.11793764 -244.4375 166.8125 C-243.7775 166.8125 -243.1175 166.8125 -242.4375 166.8125 C-242.2003125 166.11125 -241.963125 165.41 -241.71875 164.6875 C-240.20180541 161.28362433 -238.24782699 158.73696455 -235.9375 155.8125 C-235.03365903 154.6603093 -234.13001893 153.507961 -233.2265625 152.35546875 C-232.76411133 151.76942871 -232.30166016 151.18338867 -231.82519531 150.57958984 C-230.48320059 148.87069508 -229.15636668 147.15137635 -227.8359375 145.42578125 C-227.41675049 144.87801025 -226.99756348 144.33023926 -226.56567383 143.76586914 C-225.73347312 142.67620989 -224.90256973 141.58555857 -224.07299805 140.49389648 C-222.11102329 137.92679383 -220.10782577 135.43060538 -217.99609375 132.984375 C-217.25488281 132.12328125 -216.51367188 131.2621875 -215.75 130.375 C-214.75419922 129.26318359 -214.75419922 129.26318359 -213.73828125 128.12890625 C-211.96401139 124.96932058 -212.54382123 123.25565832 -213.4375 119.8125 C-215.61756916 111.31179866 -214.41454871 104.62945782 -210.4375 96.8125 C-206.7820634 91.20749721 -201.7102289 87.96472663 -195.4375 85.8125 C-187.08490605 84.69015711 -180.3287134 85.90042401 -173.4375 90.8125 C-168.08126296 95.4613095 -164.60945708 100.75843452 -163.4375 107.8125 C-163.64632812 109.74029297 -163.64632812 109.74029297 -163.859375 111.70703125 C-163.88414286 114.33487085 -163.76052869 115.42504882 -162.06030273 117.46435547 C-159.9892901 119.12362375 -157.85989325 120.56888817 -155.625 122 C-154.81836914 122.54825439 -154.01173828 123.09650879 -153.18066406 123.66137695 C-151.47565992 124.81697989 -149.76268276 125.96089461 -148.04248047 127.09375 C-144.69264285 129.30395214 -141.38888488 131.57787187 -138.08398438 133.85449219 C-136.49206061 134.94756127 -134.89571173 136.0342147 -133.29492188 137.11425781 C-129.56890699 139.62970438 -125.90459094 142.1815028 -122.33984375 144.921875 C-121.39286621 145.63984253 -121.39286621 145.63984253 -120.42675781 146.37231445 C-119.2628399 147.26228583 -118.11127134 148.16875425 -116.97558594 149.09448242 C-115.26276497 150.46601178 -115.26276497 150.46601178 -112.4375 151.8125 C-109.39077579 151.20922584 -107.20580323 150.25224605 -104.52783203 148.71948242 C-102.14791936 147.68685271 -100.69337304 147.79309609 -98.12890625 147.921875 C-94.79524934 147.60262977 -93.7494271 147.17313333 -91.52685547 144.60351562 C-89.64698126 141.48700632 -87.99013508 138.32407122 -86.375 135.0625 C-85.15929113 132.75038685 -83.94186157 130.43917758 -82.72265625 128.12890625 C-82.1517627 127.02305176 -81.58086914 125.91719727 -80.99267578 124.77783203 C-79.22867064 121.41431454 -77.33894874 118.21101168 -75.3125 115 C-72.06374773 109.8268276 -68.89078865 104.61417773 -65.75 99.375 C-65.24339844 98.5305835 -64.73679687 97.68616699 -64.21484375 96.81616211 C-60.94135169 91.34994186 -57.69818333 85.86648253 -54.46728516 80.375 C-49.64539344 72.17963374 -44.77881218 64.02578314 -39.68310547 55.99707031 C-38.94990183 54.84011764 -38.22177545 53.67992691 -37.49951172 52.51611328 C-36.76173198 51.33261282 -36.00680307 50.15970029 -35.23876953 48.99560547 C-33.53385379 46.28831308 -32.40830594 44.44346829 -32.55859375 41.1953125 C-33.49043088 38.66899851 -34.46481914 36.1734182 -35.5 33.6875 C-37.99423163 26.82146016 -38.88002853 20.88968442 -36.40234375 13.88671875 C-32.63787098 6.13756728 -27.69435873 2.25439567 -20.015625 -1.3125 C-13.32708876 -3.58254866 -6.33164487 -3.01416627 0 0 Z " fill="#5D43BC" transform="translate(644.4375,270.1875)"/>
<path d="M0 0 C0 0.66 0 1.32 0 2 C0.60070312 2.268125 1.20140625 2.53625 1.8203125 2.8125 C10.19023466 7.37245759 15.480813 18.68454394 18.3125 27.3125 C21.99945014 41.47409091 21.88163858 56.71332197 19 71 C18.82726562 71.88558594 18.65453125 72.77117187 18.4765625 73.68359375 C15.71918015 84.87426886 8.53557989 94.48596558 0 102 C6.48835875 106.66609629 13.08891762 110.98569045 20 115 C15.93866463 120.59363406 11.6208599 125.85963514 7 131 C1.65850933 128.26323624 -3.43853049 125.4459527 -8.328125 121.96484375 C-19.63673885 114.04881405 -27.32841753 111.70367013 -41 112 C-53.29340591 110.81393476 -64.91861794 104.37217869 -72.78515625 94.8359375 C-74.32193911 92.61133622 -75.68509924 90.36209717 -77 88 C-77.45117188 87.2059375 -77.90234375 86.411875 -78.3671875 85.59375 C-83.40420614 76.17541928 -85.5019351 66.61500828 -86 56 C-86.04125 55.22398437 -86.0825 54.44796875 -86.125 53.6484375 C-86.63813675 34.46995155 -81.93794896 18.32912627 -69 4 C-50.01761995 -14.05292264 -21.29885583 -13.42873597 0 0 Z " fill="#061638" transform="translate(587,675)"/>
<path d="M0 0 C3.29380168 2.67387982 5.39220924 5.90276698 7.72265625 9.3984375 C8.30660156 8.61919922 8.30660156 8.61919922 8.90234375 7.82421875 C14.82966663 0.43555129 21.18553955 -3.43564464 30.66015625 -4.6015625 C38.18178126 -4.92060315 45.41302286 -3.67897845 51.59765625 0.8359375 C58.82847275 8.19127323 60.2920178 17.75449934 60.28913879 27.66827393 C60.26362317 29.04188047 60.23754349 30.41547664 60.2109375 31.7890625 C60.20158541 33.22921507 60.19448066 34.66938379 60.1894989 36.10955811 C60.17061661 39.85815133 60.12168563 43.60574025 60.065979 47.35394287 C60.01437456 51.19545921 59.99189799 55.03714151 59.96679688 58.87890625 C59.91354171 66.38592258 59.82576789 73.89191008 59.72265625 81.3984375 C52.79265625 81.3984375 45.86265625 81.3984375 38.72265625 81.3984375 C38.70807373 79.83480469 38.69349121 78.27117187 38.6784668 76.66015625 C38.62032844 70.8378252 38.54309572 65.01587459 38.46020508 59.19384766 C38.42702889 56.67796012 38.39897441 54.16199947 38.3762207 51.64599609 C38.34254107 48.02149406 38.29021634 44.39765771 38.234375 40.7734375 C38.22798508 39.65541748 38.22159515 38.53739746 38.2150116 37.38549805 C38.07782419 30.03551973 37.37386881 24.09119785 32.97265625 17.9609375 C28.96616074 15.17864895 25.23719529 15.13116591 20.53515625 15.9609375 C16.93222036 17.80243807 15.22469442 19.72343248 13.72265625 23.3984375 C10.57513401 34.9061562 11.27123258 47.33078245 11.09765625 59.1484375 C11.05940583 61.30991036 11.02035019 63.47136912 10.98046875 65.6328125 C10.8837486 70.88794091 10.80357546 76.14294794 10.72265625 81.3984375 C3.79265625 81.3984375 -3.13734375 81.3984375 -10.27734375 81.3984375 C-10.32632813 77.98886719 -10.3753125 74.57929687 -10.42578125 71.06640625 C-10.47992083 67.7334384 -10.53717719 64.40053747 -10.59472656 61.06762695 C-10.63281126 58.76624621 -10.66769837 56.46481009 -10.69921875 54.16333008 C-10.74531782 50.83915525 -10.803235 47.51535501 -10.86328125 44.19140625 C-10.87483246 43.1763652 -10.88638367 42.16132416 -10.89828491 41.11552429 C-11.01483878 28.0060487 -11.01483878 28.0060487 -16.27734375 16.3984375 C-19.74839078 14.66291399 -23.48213182 14.93123603 -27.27734375 15.3984375 C-30.6276054 17.02049534 -30.6276054 17.02049534 -33.27734375 19.3984375 C-33.98151428 19.98377258 -34.68568481 20.56910767 -35.41119385 21.17218018 C-37.80327337 24.02585477 -37.7916917 25.57714794 -37.82324219 29.26855469 C-37.85282013 31.03993805 -37.85282013 31.03993805 -37.88299561 32.84710693 C-37.88483856 34.75196869 -37.88483856 34.75196869 -37.88671875 36.6953125 C-37.903255 37.99921936 -37.91979126 39.30312622 -37.93682861 40.64654541 C-37.98047314 44.10545729 -38.00049429 47.56411572 -38.01556396 51.02325439 C-38.03514591 54.55601979 -38.07711453 58.08851188 -38.1171875 61.62109375 C-38.19245781 68.54679901 -38.24069816 75.47242125 -38.27734375 82.3984375 C-45.53734375 82.3984375 -52.79734375 82.3984375 -60.27734375 82.3984375 C-60.27734375 55.0084375 -60.27734375 27.6184375 -60.27734375 -0.6015625 C-46.27734375 -2.6015625 -46.27734375 -2.6015625 -39.27734375 -2.6015625 C-38.94734375 0.0384375 -38.61734375 2.6784375 -38.27734375 5.3984375 C-35.35567204 5.3984375 -34.13350829 3.85848145 -31.83984375 2.0859375 C-21.76722813 -5.06939319 -10.52399293 -7.2391681 0 0 Z " fill="#061538" transform="translate(229.27734375,702.6015625)"/>
<path d="M0 0 C1 1 1 1 1.11352539 3.13305664 C1.10567017 4.50772095 1.10567017 4.50772095 1.09765625 5.91015625 C1.09282227 7.39418945 1.09282227 7.39418945 1.08789062 8.90820312 C1.07532227 10.46958008 1.07532227 10.46958008 1.0625 12.0625 C1.05798828 13.10728516 1.05347656 14.15207031 1.04882812 15.22851562 C1.03699913 17.8190666 1.02051689 20.40950559 1 23 C0.15179688 22.60167969 -0.69640625 22.20335937 -1.5703125 21.79296875 C-14.11946598 16.12516427 -28.83723677 10.76526408 -42.5625 15.25 C-45.92395331 16.68616553 -45.92395331 16.68616553 -47.5 18.75 C-48.47705647 23.14675412 -48.75393497 26.56066959 -46.625 30.625 C-40.83440877 35.86410635 -33.00409526 38.48297333 -25.80444336 41.28393555 C-13.22591378 46.17759348 -2.2870876 50.93642126 4.75 63 C8.38614833 71.72675599 7.7674648 82.07780881 5 91 C0.30646361 101.32211322 -8.70130161 106.96721887 -19 111 C-31.59962273 113.51390322 -45.85259949 113.14316273 -58 109 C-59.02222656 108.68675781 -60.04445313 108.37351562 -61.09765625 108.05078125 C-68.62178058 105.59451873 -68.62178058 105.59451873 -70.13769531 103.21166992 C-71.10923737 100.71982408 -71.15604185 99.10941943 -70.9765625 96.453125 C-70.925 95.60878906 -70.8734375 94.76445313 -70.8203125 93.89453125 C-70.75585938 93.02183594 -70.69140625 92.14914062 -70.625 91.25 C-70.56828125 90.36183594 -70.5115625 89.47367188 -70.453125 88.55859375 C-70.31202454 86.37153668 -70.1606567 84.1856931 -70 82 C-64.37321339 83.84978459 -58.81048417 85.86114713 -53.2421875 87.87890625 C-47.94925005 89.70911474 -43.28611278 90.21128876 -37.6875 90.25 C-36.95337891 90.270625 -36.21925781 90.29125 -35.46289062 90.3125 C-30.24131201 90.34956533 -26.62539121 89.46527966 -22 87 C-21.67 86.34 -21.34 85.68 -21 85 C-20.34 85 -19.68 85 -19 85 C-18.44946542 79.93304281 -18.05230744 75.41369017 -21.25 71.1875 C-26.08716877 66.37282969 -32.6139495 64.50960708 -38.93505859 62.33398438 C-51.79735706 57.90623557 -63.62713238 52.92337614 -70 40 C-73.4624668 31.43368941 -73.28141521 20.79961007 -70.5 12 C-66.92607334 3.67749944 -60.61472447 -1.36509031 -52.49609375 -5.03515625 C-35.02658069 -11.78784753 -16.55747735 -7.06369991 0 0 Z " fill="#061638" transform="translate(153,674)"/>
<path d="M0 0 C1.828125 2.078125 1.828125 2.078125 3.25 4.25 C3.72953125 4.95640625 4.2090625 5.6628125 4.703125 6.390625 C7.92741962 12.87806116 8.30797577 19.44983907 8.37890625 26.5546875 C8.39590073 27.45510773 8.4128952 28.35552795 8.43040466 29.28323364 C8.48311596 32.1470853 8.52352814 35.01093135 8.5625 37.875 C8.62155873 41.62248631 8.68608541 45.36984999 8.75390625 49.1171875 C8.77778915 50.48360382 8.77778915 50.48360382 8.80215454 51.87762451 C8.97381539 60.60282492 9.45953721 69.29006253 10 78 C3.73 78 -2.54 78 -9 78 C-9.66 75.03 -10.32 72.06 -11 69 C-11.94875 69.9075 -12.8975 70.815 -13.875 71.75 C-21.64402368 78.28093225 -29.33529496 79.68643261 -39.375 79.3828125 C-47.71729969 78.50183689 -54.29825053 75.14645417 -60 69 C-64.98269253 62.02423046 -64.6501427 54.31450106 -64 46 C-63.13773563 42.62977812 -61.85937272 39.9293891 -60 37 C-59.61070312 36.36449219 -59.22140625 35.72898437 -58.8203125 35.07421875 C-54.04436841 28.47550309 -46.44113592 26.48037864 -39 24 C-30.2145851 23.44625264 -22.27069752 23.73064192 -14 27 C-13.71522217 21.49429536 -13.65010989 17.64662177 -17 13 C-22.19348357 10.25627283 -26.42044308 9.4822889 -32.25 9.5625 C-32.99072754 9.56644775 -33.73145508 9.57039551 -34.49462891 9.57446289 C-40.89147756 9.74053359 -46.19548448 11.31352348 -52 14 C-52.99 14.33 -53.98 14.66 -55 15 C-55.53414112 13.10787298 -56.05178329 11.21108364 -56.5625 9.3125 C-56.99755859 7.72888672 -56.99755859 7.72888672 -57.44140625 6.11328125 C-58.00124767 2.99304618 -57.84690764 1.02306766 -57 -2 C-54.48123707 -2.81942948 -51.9602933 -3.63065069 -49.4375 -4.4375 C-48.73302734 -4.66759766 -48.02855469 -4.89769531 -47.30273438 -5.13476562 C-31.83340885 -10.05358342 -13.40283006 -10.1831558 0 0 Z " fill="#061638" transform="translate(771,707)"/>
<path d="M0 0 C5.67929126 4.96248751 9.40233457 10.87090586 10.28735352 18.46603394 C10.40738238 21.23190388 10.44107282 23.98544252 10.44140625 26.75390625 C10.46121803 28.28167946 10.46121803 28.28167946 10.48143005 29.84031677 C10.52208488 33.08107195 10.54389745 36.32154898 10.5625 39.5625 C10.68760105 59.36399933 10.68760105 59.36399933 13 79 C10.29283758 79.90238747 8.76223232 80.11851302 5.98828125 80.09765625 C4.85229492 80.09282227 4.85229492 80.09282227 3.69335938 80.08789062 C2.51483398 80.07532227 2.51483398 80.07532227 1.3125 80.0625 C0.51521484 80.05798828 -0.28207031 80.05347656 -1.10351562 80.04882812 C-3.06904257 80.0370585 -5.03453085 80.01912348 -7 80 C-7.99 77.03 -8.98 74.06 -10 71 C-10.94875 71.9075 -11.8975 72.815 -12.875 73.75 C-20.05523656 79.81011965 -27.4260562 81.70558004 -36.75 81.38671875 C-45.80264517 80.30954102 -53.03317438 76.95853203 -58.75 69.8125 C-62.87715049 60.5264114 -62.67288875 51.24564519 -59.375 41.75 C-56.05180438 34.15072113 -50.46262881 30.84727802 -43.015625 27.76171875 C-33.12237284 24.02298973 -21.41533444 25.01394306 -11.80859375 29.125 C-11.21175781 29.41375 -10.61492187 29.7025 -10 30 C-10.42379834 27.89303095 -10.8645403 25.78946473 -11.3125 23.6875 C-11.55613281 22.51574219 -11.79976563 21.34398437 -12.05078125 20.13671875 C-12.98584149 17.04678719 -13.42963918 15.84290021 -16 14 C-25.93957976 9.23605941 -34.82991957 10.94196202 -45 14 C-45.88300781 14.36351562 -46.76601563 14.72703125 -47.67578125 15.1015625 C-50 16 -50 16 -53 16 C-53.50588147 14.08487728 -54.00448391 12.16783078 -54.5 10.25 C-54.7784375 9.18265625 -55.056875 8.1153125 -55.34375 7.015625 C-56 4 -56 4 -56 0 C-39.08843619 -6.98152734 -16.39920432 -10.2837311 0 0 Z " fill="#071638" transform="translate(360,705)"/>
<path d="M0 0 C5.8301109 4.5906385 8.62980731 11.24710523 9.8125 18.4375 C9.89734715 20.52246185 9.93027525 22.60984997 9.92602539 24.6965332 C9.92591209 26.55789665 9.92591209 26.55789665 9.92579651 28.4568634 C9.92069072 29.80066977 9.91547474 31.14447571 9.91015625 32.48828125 C9.90828965 33.87118987 9.90686689 35.25409915 9.90586853 36.63700867 C9.90206237 40.26524706 9.89224843 43.893445 9.88116455 47.52166748 C9.87090945 51.22863213 9.86636215 54.93560336 9.86132812 58.64257812 C9.85062435 65.9075726 9.83304306 73.17252546 9.8125 80.4375 C2.8825 80.4375 -4.0475 80.4375 -11.1875 80.4375 C-11.20208252 78.93968994 -11.21666504 77.44187988 -11.23168945 75.89868164 C-11.2898976 70.31299614 -11.36712931 64.72770427 -11.44995117 59.14233398 C-11.48309475 56.73028986 -11.51115918 54.31817015 -11.53393555 51.90600586 C-11.56767572 48.42789665 -11.62000262 44.95047356 -11.67578125 41.47265625 C-11.68217117 40.40354507 -11.6885611 39.3344339 -11.69514465 38.23292542 C-11.83792652 30.8725946 -12.45552631 23.85246711 -17.1875 17.9375 C-21.11628512 14.99091116 -25.45082541 14.81815581 -30.1875 15.4375 C-35.2722845 17.26468129 -39.63771168 20.61908882 -42.1875 25.4375 C-42.9443441 29.71102047 -42.90879817 33.94195776 -42.89453125 38.2734375 C-42.90965256 39.50792633 -42.92477386 40.74241516 -42.94035339 42.01431274 C-42.98325231 45.94722733 -42.99207128 49.87937468 -43 53.8125 C-43.02038288 56.48314241 -43.04850675 59.15363366 -43.07617188 61.82421875 C-43.13904707 68.36204707 -43.17136513 74.89939598 -43.1875 81.4375 C-50.4475 81.4375 -57.7075 81.4375 -65.1875 81.4375 C-65.80655463 53.76796906 -66.38394365 26.11489901 -66.1875 -1.5625 C-63.62545456 -1.89969047 -61.06295682 -2.23237153 -58.5 -2.5625 C-57.77876953 -2.65789063 -57.05753906 -2.75328125 -56.31445312 -2.8515625 C-55.60869141 -2.94179688 -54.90292969 -3.03203125 -54.17578125 -3.125 C-53.20958862 -3.25068359 -53.20958862 -3.25068359 -52.22387695 -3.37890625 C-49.88709751 -3.5895834 -47.53375724 -3.5625 -45.1875 -3.5625 C-45.1875 0.0675 -45.1875 3.6975 -45.1875 7.4375 C-44.47207031 6.83421875 -43.75664063 6.2309375 -43.01953125 5.609375 C-29.81245907 -4.9836195 -15.03616201 -9.95828366 0 0 Z " fill="#071738" transform="translate(861.1875,703.5625)"/>
<path d="M0 0 C0.00879936 0.94388077 0.00879936 0.94388077 0.01777649 1.90682983 C0.08202763 8.4940004 0.16652714 15.08069665 0.26245117 21.66748047 C0.29557451 24.12119264 0.32364506 26.5749787 0.34643555 29.02880859 C0.38021329 32.56900328 0.43254167 36.10852849 0.48828125 39.6484375 C0.49467117 40.73426117 0.5010611 41.82008484 0.50764465 42.93881226 C0.65314031 50.58564326 0.90570867 58.90570867 6.5625 64.5625 C10.78850199 67.05475759 14.12206068 67.50053482 19 67 C23.78161846 65.25287018 25.97051662 63.0032459 29 59 C29.66 59 30.32 59 31 59 C30.505 30.29 30.505 30.29 30 1 C37.26 0.67 44.52 0.34 52 0 C52.02505615 1.63767334 52.0501123 3.27534668 52.07592773 4.96264648 C52.17103391 11.1148894 52.27099035 17.26704607 52.37231445 23.41918945 C52.41567848 26.06760727 52.45697409 28.7160337 52.49731445 31.36450195 C52.78515862 51.03601008 52.78515862 51.03601008 53.79492188 70.6796875 C54.08988812 75.45533154 54.09296017 80.21771551 54 85 C47.30324864 86.03026944 40.7685324 86.10152799 34 86 C33.34 83.03 32.68 80.06 32 77 C29.10493094 77 28.06821828 78.46698706 25.875 80.3125 C17.92076971 86.55954255 11.11725174 87.98438125 1 87 C-5.92936337 85.56633861 -12.50144133 81.56230147 -16.578125 75.75 C-19.93339835 69.88791323 -21.12686996 65.44994007 -21.11352539 58.67089844 C-21.11344986 57.38987244 -21.11337433 56.10884644 -21.11329651 54.78900146 C-21.10819026 53.39579225 -21.10297427 52.00258343 -21.09765625 50.609375 C-21.09579032 49.18019663 -21.09436724 47.75101762 -21.09336853 46.32183838 C-21.08955715 42.56699852 -21.07973867 38.81219757 -21.06866455 35.05737305 C-21.05842075 31.22314988 -21.05386455 27.38892041 -21.04882812 23.5546875 C-21.03811514 16.03644063 -21.02105531 8.51822577 -21 1 C-18.43761495 0.83138242 -15.87511576 0.66504227 -13.3125 0.5 C-12.59126953 0.45230469 -11.87003906 0.40460937 -11.12695312 0.35546875 C-7.40971261 0.11783694 -3.72383463 -0.0226201 0 0 Z " fill="#051537" transform="translate(642,699)"/>
<path d="M0 0 C6.40650074 4.95618773 9.75219104 10.27463553 12 18 C12.22429688 18.76957031 12.44859375 19.53914062 12.6796875 20.33203125 C16.06780517 34.32542133 14.86027885 49.69909834 7.3046875 62.10546875 C3.45877201 67.69010652 -1.57027606 71.8058005 -8 74 C-15.11642758 74.886687 -22.92074562 75.35718027 -29.23046875 71.453125 C-37.49225305 64.66861339 -42.70182651 56.66443455 -44 46 C-44.18918707 42.2492089 -44.23066879 38.50508693 -44.25 34.75 C-44.270625 33.76386719 -44.29125 32.77773438 -44.3125 31.76171875 C-44.36325412 22.13112402 -42.48782189 12.49867232 -36 5 C-33.83984375 3.78125 -33.83984375 3.78125 -32 3 C-32 2.34 -32 1.68 -32 1 C-21.88028259 -5.03290845 -10.4084751 -6.86145286 0 0 Z " fill="#F7F4EE" transform="translate(570,691)"/>
<path d="M0 0 C0 7.92 0 15.84 0 24 C7.59 24 15.18 24 23 24 C23 29.61 23 35.22 23 41 C15.41 41 7.82 41 0 41 C0.09703198 46.747868 0.19982345 52.49503128 0.31738281 58.24243164 C0.35561789 60.19679509 0.39048027 62.15122759 0.421875 64.10571289 C0.46764435 66.91838222 0.52561923 69.73057839 0.5859375 72.54296875 C0.59748871 73.41398727 0.60903992 74.2850058 0.62094116 75.18241882 C0.72567092 79.50699357 0.86777719 83.11841725 3 87 C6.93213898 90.25805801 10.0085287 90.33840483 15 90 C17.64 89.67 20.28 89.34 23 89 C23 94.94 23 100.88 23 107 C12.83142717 109.46510857 0.47655842 111.61336681 -9 106 C-15.68477471 101.74477576 -19.74821458 95.35286631 -21.55198669 87.63960266 C-21.97787834 85.13033628 -22.1206834 82.84260575 -22.11352539 80.30151367 C-22.11344986 79.40095749 -22.11337433 78.50040131 -22.11329651 77.57255554 C-22.10813522 76.6140419 -22.10297394 75.65552826 -22.09765625 74.66796875 C-22.0962413 73.67622147 -22.09482635 72.68447418 -22.09336853 71.66267395 C-22.08778418 68.50425157 -22.07523452 65.34590085 -22.0625 62.1875 C-22.05748298 60.04231873 -22.05292042 57.89713635 -22.04882812 55.75195312 C-22.03781987 50.5012746 -22.02056597 45.25064944 -22 40 C-25.96 40 -29.92 40 -34 40 C-34 34.72 -34 29.44 -34 24 C-29.71 24 -25.42 24 -21 24 C-20.93941406 22.75863281 -20.87882813 21.51726563 -20.81640625 20.23828125 C-20.73196377 18.59634423 -20.64731764 16.95441768 -20.5625 15.3125 C-20.50352539 14.08756836 -20.50352539 14.08756836 -20.44335938 12.83789062 C-20.23101997 8.80344189 -19.95552078 4.94252691 -19 1 C-17.3338256 0.82848205 -15.66702161 0.6630782 -14 0.5 C-12.6078125 0.36078125 -12.6078125 0.36078125 -11.1875 0.21875 C-7.46637298 -0.03662146 -3.72987947 0 0 0 Z " fill="#06173A" transform="translate(916,677)"/>
<path d="M0 0 C0 7.92 0 15.84 0 24 C7.59 24 15.18 24 23 24 C23 29.61 23 35.22 23 41 C15.74 41 8.48 41 1 41 C1.02808876 47.03397707 1.0711332 53.06397489 1.15258789 59.09692383 C1.17576059 61.14827524 1.19016189 63.1997455 1.19555664 65.2512207 C1.20485143 68.2033895 1.24585364 71.15369086 1.29296875 74.10546875 C1.2890361 75.02023483 1.28510345 75.93500092 1.28105164 76.87748718 C1.38327557 81.35566071 1.54284843 83.39363756 4.30981445 87.0637207 C10.26420327 91.34943245 17.14001403 89.96468553 24 89 C24 94.94 24 100.88 24 107 C13.77021151 109.82201062 1.69060101 111.18203954 -8 106 C-14.94620619 101.79438789 -18.39902655 95.99358962 -20.55352783 88.23974609 C-22.24133761 79.77277854 -21.48719161 70.76980223 -21.3125 62.1875 C-21.28737293 60.03062496 -21.2645676 57.87372155 -21.24414062 55.71679688 C-21.1895254 50.47715386 -21.10349773 45.23889608 -21 40 C-25.29 40 -29.58 40 -34 40 C-33.67 34.72 -33.34 29.44 -33 24 C-28.71 24 -24.42 24 -20 24 C-20.01160156 23.01 -20.02320313 22.02 -20.03515625 21 C-20.0897219 14.26199467 -20.08898024 7.67000397 -19 1 C-12.46861401 0.01413042 -6.77354143 0 0 0 Z " fill="#071738" transform="translate(471,677)"/>
<path d="M0 0 C0 6.93 0 13.86 0 21 C-2.475 21.0928125 -2.475 21.0928125 -5 21.1875 C-10.81110295 21.75516558 -14.72225973 22.98089217 -19 27 C-23.77263646 33.96126986 -24.73892351 40.42186453 -24.70703125 48.6953125 C-24.72215256 49.76876923 -24.73727386 50.84222595 -24.75285339 51.94821167 C-24.79547234 55.34069246 -24.80454379 58.73227904 -24.8125 62.125 C-24.83566423 64.44012751 -24.86103354 66.75523408 -24.88867188 69.0703125 C-24.95537758 74.71401927 -24.97660443 80.35528735 -25 86 C-31.93 86 -38.86 86 -46 86 C-46.02505615 83.97786377 -46.0501123 81.95572754 -46.07592773 79.87231445 C-46.15992431 73.14286126 -46.2485375 66.41347432 -46.33933926 59.68410969 C-46.3941788 55.60966179 -46.44752994 51.53520641 -46.49731445 47.46069336 C-46.54554102 43.51839552 -46.59789282 39.57617091 -46.65294075 35.63396263 C-46.673104 34.14033046 -46.69185483 32.64667843 -46.70907402 31.15300941 C-46.8149115 22.06806517 -47.1715692 13.05124723 -48 4 C-41.30324864 2.96973056 -34.7685324 2.89847201 -28 3 C-26.71682108 6.84953676 -26.93356363 9.94738135 -27 14 C-26.34 14 -25.68 14 -25 14 C-24.61714844 13.12021484 -24.61714844 13.12021484 -24.2265625 12.22265625 C-21.03805763 6.44476049 -15.23375087 2.63246476 -9.15234375 0.41015625 C-7 0 -7 0 0 0 Z " fill="#061637" transform="translate(431,698)"/>
<path d="M0 0 C2.9375 1.625 2.9375 1.625 4.9375 3.625 C5.60634473 7.93376818 5.87340223 12.53593252 4.0625 16.578125 C1.08617061 20.45518566 -2.475489 22.2488967 -7.0625 23.625 C-12.04794383 24.16466145 -16.5926667 24.12284802 -21.0625 21.625 C-23.50234498 19.62084162 -24.03373955 18.71128136 -25.0625 15.625 C-25.51362782 6.30169173 -25.51362782 6.30169173 -23.0625 2.625 C-16.4955382 -2.49756611 -7.6253245 -3.09778808 0 0 Z " fill="#F6F3EF" transform="translate(753.0625,746.375)"/>
<path d="M0 0 C2.875 1.8125 2.875 1.8125 4.3125 4.0625 C5.02634238 7.55239608 5.31200446 10.2540351 4.875 13.8125 C1.70896015 18.51633063 -1.66987832 21.54562205 -7 23.5 C-12.88858694 24.36596867 -17.04066596 24.0479853 -22.125 20.8125 C-25.76654224 16.89416595 -25.62764642 13.59590052 -25.4765625 8.4453125 C-24.99440755 4.83450766 -23.90585167 3.14240275 -21.125 0.8125 C-14.7339241 -2.27889521 -6.68205849 -2.47067709 0 0 Z " fill="#F6F3EE" transform="translate(345.125,746.1875)"/>
<path d="M0 0 C0 7.92 0 15.84 0 24 C7.59 24 15.18 24 23 24 C23 29.28 23 34.56 23 40 C15.41 40 7.82 40 0 40 C0 39.67 0 39.34 0 39 C6.93 39 13.86 39 21 39 C21 34.38 21 29.76 21 25 C18.63521484 25.01740234 18.63521484 25.01740234 16.22265625 25.03515625 C14.16927201 25.04453243 12.1158865 25.05363282 10.0625 25.0625 C8.50112305 25.07506836 8.50112305 25.07506836 6.90820312 25.08789062 C5.42416992 25.09272461 5.42416992 25.09272461 3.91015625 25.09765625 C2.53549194 25.10551147 2.53549194 25.10551147 1.13305664 25.11352539 C-1 25 -1 25 -2 24 C-2.08700342 22.36527118 -2.10701063 20.72685945 -2.09765625 19.08984375 C-2.09443359 18.10048828 -2.09121094 17.11113281 -2.08789062 16.09179688 C-2.07951172 15.05087891 -2.07113281 14.00996094 -2.0625 12.9375 C-2.05798828 11.89271484 -2.05347656 10.84792969 -2.04882812 9.77148438 C-2.03699927 7.18096546 -2.01906319 4.59047578 -2 2 C-7.28 2 -12.56 2 -18 2 C-17.979375 3.4025 -17.95875 4.805 -17.9375 6.25 C-17.9375 12.1816656 -18.21494539 18.11693642 -19 24 C-20 25 -20 25 -22.72265625 25.09765625 C-25.81510417 25.06510417 -28.90755208 25.03255208 -32 25 C-32 29.62 -32 34.24 -32 39 C-29.3084375 38.9690625 -29.3084375 38.9690625 -26.5625 38.9375 C-24.70833878 38.9161878 -22.85287502 38.92773498 -21 39 C-20 40 -20 40 -19.87974548 41.94252014 C-19.8830764 43.21826149 -19.8830764 43.21826149 -19.88647461 44.51977539 C-19.88655014 45.48069595 -19.88662567 46.44161652 -19.88670349 47.43165588 C-19.89186478 48.476436 -19.89702606 49.52121613 -19.90234375 50.59765625 C-19.9037587 51.66165146 -19.90517365 52.72564667 -19.90663147 53.82188416 C-19.91224936 57.23545083 -19.92480489 60.648953 -19.9375 64.0625 C-19.94251269 66.37044176 -19.947076 68.67838455 -19.95117188 70.98632812 C-19.9622246 76.65757426 -19.97898013 82.32878253 -20 88 C-22.10483746 84.84274381 -22.2472059 84.12625389 -22.22705078 80.52856445 C-22.22689972 79.62785721 -22.22674866 78.72714996 -22.22659302 77.79914856 C-22.21627045 76.83031235 -22.20594788 75.86147614 -22.1953125 74.86328125 C-22.1924826 73.86870407 -22.18965271 72.87412689 -22.18673706 71.84941101 C-22.17553489 68.6703187 -22.15043014 65.49150728 -22.125 62.3125 C-22.11497025 60.15820719 -22.10584439 58.00390997 -22.09765625 55.84960938 C-22.07559541 50.56629789 -22.04106521 45.28319658 -22 40 C-25.96 40 -29.92 40 -34 40 C-34 34.72 -34 29.44 -34 24 C-29.71 24 -25.42 24 -21 24 C-20.93941406 22.75863281 -20.87882813 21.51726563 -20.81640625 20.23828125 C-20.73196377 18.59634423 -20.64731764 16.95441768 -20.5625 15.3125 C-20.50352539 14.08756836 -20.50352539 14.08756836 -20.44335938 12.83789062 C-20.23101997 8.80344189 -19.95552078 4.94252691 -19 1 C-17.3338256 0.82848205 -15.66702161 0.6630782 -14 0.5 C-12.6078125 0.36078125 -12.6078125 0.36078125 -11.1875 0.21875 C-7.46637298 -0.03662146 -3.72987947 0 0 0 Z " fill="#050820" transform="translate(916,677)"/>
<path d="M0 0 C1.23157837 0.00616333 1.23157837 0.00616333 2.48803711 0.01245117 C3.37942383 0.01438477 4.27081055 0.01631836 5.18920898 0.01831055 C6.1218457 0.03055664 7.05448242 0.04280273 8.01538086 0.05541992 C9.42013672 0.05638672 9.42013672 0.05638672 10.85327148 0.05737305 C17.81268862 0.10272768 17.81268862 0.10272768 18.95288086 1.24291992 C19.03973689 2.80464737 19.05990305 4.37021336 19.05053711 5.93432617 C19.04731445 6.87856445 19.0440918 7.82280273 19.04077148 8.7956543 C19.03239258 9.78887695 19.02401367 10.78209961 19.01538086 11.80541992 C19.01086914 12.80250977 19.00635742 13.79959961 19.00170898 14.8269043 C18.98988093 17.29896841 18.97339935 19.7709151 18.95288086 22.24291992 C19.58379639 22.23768311 20.21471191 22.23244629 20.86474609 22.22705078 C23.70661433 22.20634166 26.54846674 22.19327926 29.39038086 22.18041992 C30.88021484 22.16785156 30.88021484 22.16785156 32.40014648 22.1550293 C33.81650391 22.15019531 33.81650391 22.15019531 35.26147461 22.14526367 C36.57329712 22.13740845 36.57329712 22.13740845 37.91162109 22.12939453 C39.95288086 22.24291992 39.95288086 22.24291992 40.95288086 23.24291992 C41.05168883 24.71944656 41.08367331 26.20059228 41.08569336 27.68041992 C41.08762695 29.02233398 41.08762695 29.02233398 41.08959961 30.39135742 C41.08573242 31.33237305 41.08186523 32.27338867 41.07788086 33.24291992 C41.08368164 34.65444336 41.08368164 34.65444336 41.08959961 36.09448242 C41.08831055 36.9890918 41.08702148 37.88370117 41.08569336 38.80541992 C41.08456543 39.63170898 41.0834375 40.45799805 41.08227539 41.30932617 C40.95288086 43.24291992 40.95288086 43.24291992 39.95288086 44.24291992 C38.39115341 44.32977595 36.82558742 44.34994212 35.26147461 44.34057617 C34.31723633 44.33735352 33.37299805 44.33413086 32.40014648 44.33081055 C31.40692383 44.32243164 30.41370117 44.31405273 29.39038086 44.30541992 C28.39329102 44.3009082 27.39620117 44.29639648 26.36889648 44.29174805 C23.89683237 44.27991999 21.42488568 44.26343841 18.95288086 44.24291992 C18.96073608 45.69529053 18.96073608 45.69529053 18.96875 47.17700195 C18.98692786 50.78880886 18.9983594 54.40061176 19.0078125 58.01245117 C19.01282358 59.57202842 19.01963423 61.131601 19.02832031 62.69116211 C19.04052772 64.94019728 19.04614154 67.18917002 19.05053711 69.43823242 C19.05569839 70.12909943 19.06085968 70.81996643 19.06617737 71.5317688 C19.06663615 75.54207047 18.72640746 79.30837287 17.95288086 83.24291992 C17.62288086 83.24291992 17.29288086 83.24291992 16.95288086 83.24291992 C16.95288086 69.71291992 16.95288086 56.18291992 16.95288086 42.24291992 C24.54288086 42.24291992 32.13288086 42.24291992 39.95288086 42.24291992 C39.95288086 36.63291992 39.95288086 31.02291992 39.95288086 25.24291992 C32.36288086 25.24291992 24.77288086 25.24291992 16.95288086 25.24291992 C16.95288086 17.32291992 16.95288086 9.40291992 16.95288086 1.24291992 C14.31288086 1.57291992 11.67288086 1.90291992 8.95288086 2.24291992 C5.2780185 2.35550762 1.63111387 2.28889783 -2.04711914 2.24291992 C-2.37711914 5.87291992 -2.70711914 9.50291992 -3.04711914 13.24291992 C-3.37711914 13.24291992 -3.70711914 13.24291992 -4.04711914 13.24291992 C-4.10103907 11.45158014 -4.13987486 9.65978093 -4.17211914 7.86791992 C-4.19532227 6.87018555 -4.21852539 5.87245117 -4.24243164 4.84448242 C-3.9999474 1.61459232 -3.32299395 0.39432069 0 0 Z " fill="#ECECEB" transform="translate(899.047119140625,675.757080078125)"/>
<path d="M0 0 C0.33 0 0.66 0 1 0 C1.33 27.06 1.66 54.12 2 82 C9.26 82 16.52 82 24 82 C24 82.99 24 83.98 24 85 C16.74 85 9.48 85 2 85 C-0.14112022 80.71775956 -0.2718408 77.73868493 -0.22705078 73.11035156 C-0.22734283 72.31972824 -0.22763489 71.52910492 -0.22793579 70.71452332 C-0.22654467 68.1064448 -0.21099379 65.49865349 -0.1953125 62.890625 C-0.19158159 61.08030351 -0.18873499 59.26998 -0.18673706 57.45965576 C-0.17910672 52.69865325 -0.15946334 47.93777308 -0.1373291 43.17681885 C-0.1168578 38.31711482 -0.10773259 33.45739099 -0.09765625 28.59765625 C-0.07621691 19.06505047 -0.04208815 9.53253541 0 0 Z " fill="#EEECE9" transform="translate(167,703)"/>
<path d="M0 0 C0 7.92 0 15.84 0 24 C-0.66 24 -1.32 24 -2 24 C-2 16.74 -2 9.48 -2 2 C-7.28 2 -12.56 2 -18 2 C-18.33 3.32 -18.66 4.64 -19 6 C-19 4.35 -19 2.7 -19 1 C-17.3338256 0.82848205 -15.66702161 0.6630782 -14 0.5 C-13.071875 0.4071875 -12.14375 0.314375 -11.1875 0.21875 C-7.46637298 -0.03662146 -3.72987947 0 0 0 Z " fill="#15192E" transform="translate(916,677)"/>
<path d="M0 0 C0 5.94 0 11.88 0 18 C-0.66 18 -1.32 18 -2 18 C-2 12.72 -2 7.44 -2 2 C-2.99 2.33 -3.98 2.66 -5 3 C-7.1875 2.0625 -7.1875 2.0625 -9 1 C-5.94152152 0.45627049 -3.11227195 0 0 0 Z " fill="#0E162C" transform="translate(495,766)"/>
<path d="M0 0 C0.99 0 1.98 0 3 0 C3.02741912 1.5415636 3.04658248 3.08327474 3.0625 4.625 C3.07410156 5.48351562 3.08570313 6.34203125 3.09765625 7.2265625 C3 10 3 10 2 16 C6.29 16 10.58 16 15 16 C15 16.33 15 16.66 15 17 C10.38 17 5.76 17 1 17 C0.67 11.39 0.34 5.78 0 0 Z " fill="#E9E9EA" transform="translate(435,701)"/>
<path d="M0 0 C0.66 0 1.32 0 2 0 C2 2.64 2 5.28 2 8 C-2.29 8 -6.58 8 -11 8 C-11 7.01 -11 6.02 -11 5 C-7.37 5 -3.74 5 0 5 C0 3.35 0 1.7 0 0 Z " fill="#D6D6D9" transform="translate(449,693)"/>
<path d="M0 0 C3.28088899 -0.15259949 5.57797726 -0.18086689 8.625 1.125 C10.99213253 2.29174656 10.99213253 2.29174656 13.3125 1.125 C13.869375 0.75375 14.42625 0.3825 15 0 C15 1.98 15 3.96 15 6 C13.24719267 5.57388649 11.49782565 5.13360733 9.75 4.6875 C8.77546875 4.44386719 7.8009375 4.20023438 6.796875 3.94921875 C4.01024335 3.00347644 2.22695632 1.89291287 0 0 Z " fill="#E6E6E7" transform="translate(335,729)"/>
<path d="M0 0 C0.66 0.33 1.32 0.66 2 1 C2 2.32 2 3.64 2 5 C5.3 5 8.6 5 12 5 C12 5.33 12 5.66 12 6 C5.565 6.495 5.565 6.495 -1 7 C-1 1 -1 1 0 0 Z " fill="#16213D" transform="translate(438,710)"/>
<path d="M0 0 C0.66 0.66 1.32 1.32 2 2 C1.608125 2.37125 1.21625 2.7425 0.8125 3.125 C-1.6115419 5.63262955 -3.78487928 8.30593426 -6 11 C-6.99 10.67 -7.98 10.34 -9 10 C-6.03 6.7 -3.06 3.4 0 0 Z " fill="#F0ECEF" transform="translate(403,493)"/>
<path d="M0 0 C0.99 0.33 1.98 0.66 3 1 C1.8803014 2.00593243 0.7540588 3.0045849 -0.375 4 C-1.00148438 4.556875 -1.62796875 5.11375 -2.2734375 5.6875 C-4 7 -4 7 -6 7 C-6 5.02 -6 3.04 -6 1 C-5.34 1 -4.68 1 -4 1 C-3.67 1.66 -3.34 2.32 -3 3 C-2.01 2.01 -1.02 1.02 0 0 Z " fill="#ECECEC" transform="translate(822,704)"/>
<path d="M0 0 C0.33 0.99 0.66 1.98 1 3 C0.0479279 4.00596297 -0.91187346 5.00461563 -1.875 6 C-2.40867188 6.556875 -2.94234375 7.11375 -3.4921875 7.6875 C-5 9 -5 9 -7 9 C-5.44499019 5.18315774 -2.96404505 2.80804268 0 0 Z " fill="#ECEDED" transform="translate(198,719)"/>
<path d="M0 0 C3.63 0 7.26 0 11 0 C6.09396701 3.67952474 4.82490317 3.29124516 -1 3 C-0.67 2.01 -0.34 1.02 0 0 Z " fill="#0D1C3C" transform="translate(681,782)"/>
<path d="M0 0 C0.66 0 1.32 0 2 0 C2.99 3.3 3.98 6.6 5 10 C3.68 9.34 2.36 8.68 1 8 C0.16113831 5.32209537 0.18233586 2.8262059 0 0 Z " fill="#E2E2E5" transform="translate(449,763)"/>
<path d="M0 0 C2.97 0.495 2.97 0.495 6 1 C6 1.66 6 2.32 6 3 C6.66 3 7.32 3 8 3 C8 3.66 8 4.32 8 5 C5.03 4.01 2.06 3.02 -1 2 C-0.67 1.34 -0.34 0.68 0 0 Z " fill="#EDECEC" transform="translate(130,715)"/>
<path d="M0 0 C0.33 0.99 0.66 1.98 1 3 C-0.98 3.99 -2.96 4.98 -5 6 C-5 5.01 -5 4.02 -5 3 C-2.5 1.3125 -2.5 1.3125 0 0 Z " fill="#583DBB" transform="translate(343,197)"/>
<path d="M0 0 C0 0.33 0 0.66 0 1 C-8.57142857 2.42857143 -8.57142857 2.42857143 -12 0 C-7.74433453 -1.16063604 -4.3164922 -0.76173392 0 0 Z " fill="#E5E5E7" transform="translate(260,718)"/>
<path d="M0 0 C0.99 0 1.98 0 3 0 C3 0.66 3 1.32 3 2 C4.32 2.33 5.64 2.66 7 3 C6.67 3.66 6.34 4.32 6 5 C3.69 4.01 1.38 3.02 -1 2 C-0.67 1.34 -0.34 0.68 0 0 Z " fill="#E3E3E4" transform="translate(759,699)"/>
</svg>
